<?xml version="1.0" standalone="no"?>
<!DOCTYPE svg PUBLIC "-//W3C//DTD SVG 20010904//EN"
 "http://www.w3.org/TR/2001/REC-SVG-20010904/DTD/svg10.dtd">
<svg version="1.0" xmlns="http://www.w3.org/2000/svg"
 width="251.000000pt" height="251.000000pt" viewBox="0 0 251.000000 251.000000"
 preserveAspectRatio="xMidYMid meet">

<g transform="translate(0.000000,251.000000) scale(0.100000,-0.100000)"
fill="#000000" stroke="none">
<path d="M1049 2300 c-417 -88 -744 -420 -825 -840 -19 -96 -19 -294 0 -390
85 -440 435 -779 878 -850 115 -19 310 -8 428 23 415 110 723 458 780 885 75
552 -304 1072 -858 1178 -102 19 -296 17 -403 -6z m463 -38 c374 -100 657
-387 751 -762 31 -125 30 -350 -1 -472 -48 -184 -124 -324 -245 -454 -194
-207 -426 -317 -703 -331 -511 -27 -964 327 -1058 827 -22 115 -20 303 3 410
89 402 392 702 796 790 120 26 342 22 457 -8z"/>
<path d="M1108 2265 c-402 -63 -718 -352 -825 -753 -23 -84 -26 -117 -26 -247
0 -130 3 -163 26 -249 88 -331 330 -596 642 -703 366 -125 758 -41 1034 221
204 195 311 446 311 731 0 180 -37 328 -120 482 -130 242 -372 432 -632 497
-151 37 -264 43 -410 21z m195 -136 c32 -67 42 -80 58 -76 15 4 24 -4 39 -33
31 -60 26 -98 -16 -141 -56 -57 -26 -80 44 -35 51 34 92 43 92 22 0 -10 9 -16
25 -16 24 0 95 -25 95 -33 0 -2 -23 -18 -51 -36 -41 -25 -49 -34 -40 -45 9
-11 2 -20 -33 -44 -25 -16 -42 -33 -38 -37 4 -4 -17 -5 -45 -3 -50 5 -133 46
-133 67 0 4 34 13 76 19 42 6 81 15 86 20 6 6 -7 7 -38 1 -29 -6 -61 -5 -85 1
-48 13 -59 42 -67 180 -7 117 -19 99 -21 -30 -2 -132 -41 -171 -151 -150 -25
5 -46 7 -48 5 -7 -6 62 -24 118 -31 60 -7 60 -7 43 -27 -36 -40 -172 -81 -165
-49 1 7 -6 15 -15 19 -27 9 -63 45 -57 55 8 13 -32 54 -68 69 -28 12 -29 13
-12 26 9 7 39 16 65 19 28 4 47 11 46 18 -4 19 54 8 92 -19 72 -49 99 -16 36
44 -23 21 -35 42 -35 59 0 38 42 108 63 104 19 -3 61 58 79 117 7 23 15 41 18
41 3 0 22 -37 43 -81z m-628 -277 c10 -32 15 -73 12 -95 -5 -37 -5 -38 23 -32
44 10 48 -31 10 -112 -16 -36 -30 -71 -30 -79 0 -33 48 -4 63 38 3 9 16 18 28
20 23 3 31 13 52 68 l14 35 16 -32 c19 -36 22 -95 7 -124 -9 -16 -7 -19 10
-19 31 0 24 -26 -17 -71 -41 -42 -88 -58 -140 -44 l-28 7 30 15 c33 17 85 62
85 74 0 4 -19 -3 -42 -16 -61 -35 -92 -33 -117 8 -31 50 -54 153 -47 206 5 35
4 43 -6 33 -22 -22 -22 -122 1 -187 37 -102 37 -95 0 -95 -19 0 -50 4 -68 10
-50 14 -26 -6 35 -30 l49 -19 -38 -1 c-58 0 -102 26 -138 81 -36 56 -33 71 8
40 17 -14 35 -20 49 -17 13 4 26 2 29 -4 9 -15 45 -12 45 3 0 8 -9 22 -20 32
-39 35 -60 82 -63 137 -1 38 1 52 11 50 7 -1 17 9 22 22 5 13 29 47 54 75 25
28 50 60 56 71 16 29 26 18 45 -48z m1215 58 c0 -5 25 -37 55 -71 31 -34 58
-73 61 -86 4 -15 12 -22 20 -19 11 4 14 -6 14 -40 0 -55 -18 -99 -60 -147 -28
-32 -30 -38 -15 -44 10 -3 26 -1 36 5 10 7 25 9 34 5 9 -3 29 4 46 16 39 29
39 7 -1 -47 -36 -51 -80 -74 -128 -70 l-37 3 43 14 c23 8 47 20 54 28 9 11 6
12 -16 3 -15 -5 -45 -10 -66 -10 l-39 0 18 43 c30 69 42 141 32 192 -13 70
-21 66 -21 -13 0 -79 -27 -167 -60 -197 -24 -21 -68 -15 -111 16 -17 12 -32
19 -35 17 -9 -10 37 -56 72 -73 28 -13 33 -19 23 -26 -21 -13 -65 -11 -103 5
-54 22 -101 106 -60 106 12 0 14 5 9 18 -17 38 -17 75 0 113 22 47 30 49 39 7
7 -37 32 -68 55 -68 9 0 23 -15 31 -33 9 -20 24 -33 38 -35 30 -4 28 11 -9 81
-20 38 -29 69 -27 90 3 29 6 32 33 30 30 -2 30 -2 27 47 -4 51 22 150 39 150
5 0 9 -4 9 -10z m-589 -266 c50 -53 105 -81 205 -107 87 -22 89 -23 89 -52 l0
-30 -332 -3 -333 -2 0 34 c0 33 1 33 63 45 86 17 200 74 234 116 16 19 30 35
34 35 3 0 21 -16 40 -36z m298 -259 c19 -17 29 -64 15 -77 -3 -3 -29 0 -57 8
-63 17 -182 18 -226 3 l-31 -11 0 -149 c0 -136 -2 -149 -19 -159 -25 -13 -27
-13 -45 5 -11 12 -21 13 -41 5 -34 -13 -48 -4 -39 23 5 16 -4 11 -36 -21 -50
-50 -77 -59 -116 -39 -38 20 -60 45 -79 90 -20 47 -19 82 2 117 14 24 15 33 4
56 -6 15 -10 28 -8 31 8 7 75 -37 81 -54 5 -13 17 -15 67 -10 33 3 71 13 85
22 14 9 32 14 40 11 20 -8 18 -69 -5 -116 -15 -30 -16 -40 -6 -40 7 0 18 -12
23 -27 7 -22 11 0 17 99 4 70 5 134 1 143 -16 42 -176 48 -293 11 -21 -7 -23
-4 -23 33 0 22 6 43 13 48 25 16 129 21 389 19 244 -2 269 -4 287 -21z m-1031
-10 c6 -14 9 -30 7 -37 -4 -9 4 -13 22 -14 16 0 42 -4 58 -8 30 -7 30 -7 5 6
-29 16 -37 43 -20 63 18 22 39 18 52 -10 16 -36 -3 -75 -37 -75 -15 0 -24 -4
-20 -10 3 -6 4 -19 0 -29 -5 -17 -10 -18 -35 -9 -23 7 -30 16 -30 35 0 22 -2
24 -16 13 -12 -11 -18 -10 -31 3 -15 15 -14 16 8 10 l24 -5 -22 16 c-25 19
-30 45 -11 64 19 19 34 14 46 -13z m302 4 c13 -24 4 -75 -15 -82 -7 -3 -21 1
-32 9 -17 13 -16 14 12 9 l30 -5 -27 11 c-30 11 -35 28 -18 60 14 25 36 24 50
-2z m828 9 c20 -20 14 -58 -10 -69 l-23 -10 23 5 c19 4 21 2 12 -9 -15 -18
-37 -9 -47 18 -8 26 -5 47 9 65 13 15 21 15 36 0z m192 -7 c13 -25 5 -45 -23
-59 -22 -11 -21 -11 3 -8 14 2 33 6 42 10 9 4 22 5 28 1 6 -4 10 4 10 17 0 14
6 33 14 44 12 15 18 17 33 8 36 -22 16 -112 -21 -98 -9 3 -16 -5 -21 -23 -8
-35 -23 -53 -39 -47 -8 3 -11 -8 -9 -38 2 -24 0 -38 -3 -31 -4 8 -13 9 -29 3
-19 -7 -24 -5 -29 13 -6 26 18 67 40 67 11 0 14 5 10 16 -3 9 -6 24 -6 34 0
14 -5 17 -21 13 -24 -7 -39 11 -39 48 0 45 40 66 60 30z m-1105 -36 c0 -29 5
-42 18 -47 28 -12 40 -56 22 -84 -18 -28 -28 -30 -44 -10 -10 12 -8 14 11 10
l23 -5 -22 12 c-16 8 -23 21 -23 41 0 18 -5 28 -14 28 -8 0 -18 5 -22 11 -4 8
1 9 17 4 l24 -7 -22 17 c-22 15 -31 54 -16 69 4 4 16 6 28 4 16 -2 20 -10 20
-43z m1003 33 c22 -22 14 -53 -15 -65 -28 -11 -28 -11 7 -9 50 4 70 -9 70 -44
0 -25 -4 -30 -26 -30 -15 0 -23 -4 -19 -11 4 -6 14 -8 22 -5 8 3 11 1 8 -4
-19 -32 -61 13 -52 56 3 18 0 24 -14 24 -15 0 -17 -5 -13 -29 5 -25 2 -30 -22
-40 -20 -8 -22 -10 -6 -7 22 4 30 -8 13 -18 -16 -11 -41 6 -47 31 -8 29 10 73
29 73 9 0 12 9 9 30 -7 47 27 77 56 48z m-1280 -80 c16 -16 15 -60 -2 -84 -14
-18 -16 -18 -32 -2 -16 16 -16 17 7 12 24 -4 24 -4 2 7 -27 14 -33 28 -22 57
9 24 28 29 47 10z m1550 0 c23 -23 14 -55 -18 -66 -27 -10 -30 -9 -36 13 -11
45 26 81 54 53z m-1317 -24 c4 -13 2 -32 -6 -47 -12 -24 -11 -26 7 -29 28 -4
42 -29 34 -62 -6 -26 -7 -26 -37 -10 -27 13 -30 20 -25 44 4 22 1 29 -12 32
-12 3 -20 -7 -28 -32 -8 -27 -15 -34 -32 -33 -18 2 -20 -1 -13 -20 11 -30 -6
-77 -29 -77 -21 0 -27 13 -26 60 1 33 4 35 44 44 40 8 41 10 20 21 -16 8 -22
19 -21 38 1 21 -3 27 -18 27 -16 0 -19 -5 -14 -20 12 -37 -2 -57 -35 -52 -25
4 -30 9 -30 32 0 32 23 55 45 46 8 -3 15 -1 15 4 0 6 9 6 24 0 13 -5 26 -6 30
-3 3 3 21 -2 40 -11 39 -18 46 -19 46 -7 0 5 -9 11 -20 14 -20 5 -28 45 -13
61 13 13 46 1 54 -20z m402 -11 c21 -13 -1 -18 -69 -16 -79 2 -103 8 -63 17
13 3 33 7 44 10 20 4 73 -2 88 -11z m382 -4 c23 -9 24 -9 -78 -12 -48 -1 -76
2 -74 8 8 23 99 25 152 4z m71 -20 c-11 -27 -11 -36 5 -66 30 -58 -3 -154 -67
-193 -48 -30 -70 -25 -122 28 -46 45 -48 46 -44 20 4 -29 1 -31 -35 -22 -19 5
-22 11 -17 33 4 14 13 31 21 38 13 10 13 15 0 40 -25 47 -31 97 -13 112 12 10
21 9 46 -4 18 -9 57 -19 88 -22 46 -5 57 -3 68 12 13 18 62 53 76 54 4 1 1
-13 -6 -30z m404 -18 c13 -25 5 -45 -23 -60 l-22 -12 23 5 c26 5 30 -9 5 -18
-22 -9 -43 18 -43 54 0 46 40 67 60 31z m53 -12 c-6 -6 -17 -8 -24 -3 -9 5 -8
9 7 14 23 9 31 3 17 -11z m-1188 -33 c27 -41 -10 -105 -43 -73 -14 15 -13 15
9 11 l24 -6 -25 14 c-26 14 -29 40 -8 66 15 18 26 15 43 -12z m839 8 c24 -24
19 -51 -11 -63 -22 -9 -23 -10 -5 -7 15 3 22 0 19 -7 -2 -7 -12 -12 -22 -12
-25 0 -41 49 -26 81 12 28 24 30 45 8z m104 -21 c2 -25 -1 -33 -18 -38 -12 -4
-19 -9 -17 -12 3 -2 19 3 35 11 45 23 72 6 62 -39 -1 -5 -3 -16 -4 -23 -8 -47
-56 -31 -56 18 0 23 -4 27 -20 23 -15 -4 -18 -11 -14 -32 5 -22 1 -29 -23 -40
-18 -9 -23 -15 -14 -19 7 -2 18 2 23 9 8 12 9 11 5 -1 -7 -26 -36 -23 -48 4
-16 34 -4 76 21 76 23 0 23 1 11 32 -13 35 4 70 31 66 18 -2 24 -11 26 -35z
m-1246 -25 c-9 -9 -15 -9 -24 0 -9 9 -7 12 12 12 19 0 21 -3 12 -12z m1386
-10 c21 -18 13 -47 -17 -63 -28 -14 -30 -14 -36 6 -4 11 -4 31 -1 44 5 19 3
23 -8 19 -8 -3 -17 0 -21 7 -10 14 63 3 83 -13z m-1223 -8 c22 -11 48 -19 58
-20 24 0 39 -43 27 -75 -19 -50 -65 -19 -58 40 6 49 -23 53 -38 5 -8 -28 -15
-34 -33 -32 -19 2 -21 -1 -15 -20 10 -33 11 -33 33 -7 16 20 21 21 35 10 20
-16 21 -61 3 -86 -17 -22 -34 -13 -49 23 l-10 27 -11 -22 c-10 -23 -41 -31
-51 -14 -4 5 4 7 16 3 22 -5 22 -4 -4 19 -21 19 -25 28 -18 47 6 13 18 22 30
22 13 0 18 4 14 11 -4 8 0 8 15 0 12 -7 21 -8 21 -2 0 5 -9 13 -20 16 -22 7
-27 44 -8 63 15 15 15 15 63 -8z m1220 -70 c-3 -5 -12 -10 -20 -10 -10 0 -12
-9 -8 -33 4 -28 1 -34 -24 -45 -21 -9 -22 -11 -5 -8 12 2 20 0 16 -5 -11 -18
-35 -8 -45 18 -15 39 1 65 47 79 21 6 40 12 42 13 2 1 0 -3 -3 -9z m-117 -32
c22 -22 14 -56 -15 -66 -28 -10 -28 -10 -3 -11 19 -1 22 -3 11 -13 -10 -11
-16 -8 -32 11 -23 29 -24 49 -2 73 19 21 25 22 41 6z m-418 -62 c41 -16 96
-28 122 -29 45 -1 47 -2 32 -19 -38 -41 -171 -54 -255 -24 -43 15 -50 15 -90
0 -61 -23 -177 -22 -225 2 -53 27 -52 39 4 42 26 1 85 15 132 31 104 37 172
36 280 -3z m380 -51 c19 -3 53 -2 76 3 36 8 43 6 62 -13 11 -12 39 -27 62 -35
l42 -14 -24 -18 c-13 -10 -38 -23 -55 -29 -18 -6 -33 -15 -33 -20 0 -14 -33
-10 -54 6 -23 17 -56 20 -56 4 0 -6 14 -22 31 -37 35 -29 68 -93 69 -131 0
-13 -9 -33 -20 -45 -11 -12 -34 -37 -50 -57 -27 -33 -133 -99 -158 -99 -7 0
-6 13 4 35 7 19 14 55 14 80 0 43 -1 45 -30 45 -40 0 -39 20 5 90 40 62 43 80
15 80 -21 0 -40 -27 -40 -57 0 -23 -71 -53 -128 -53 -23 0 -42 2 -42 4 0 2 16
28 35 58 20 29 34 60 32 69 -5 18 82 119 103 119 21 0 -1 -67 -46 -135 l-19
-30 32 23 c17 12 42 39 54 59 21 33 23 34 36 17 29 -39 55 -131 57 -196 0 -38
5 -63 10 -58 5 5 8 37 8 72 0 57 -16 114 -57 210 -7 17 -4 16 36 -2 24 -11 62
-19 84 -19 l40 0 -54 15 c-70 19 -164 86 -98 71 12 -3 38 -8 57 -12z m-990 -5
c0 -15 -60 -49 -100 -56 -19 -4 -42 -10 -50 -15 -26 -15 51 -9 95 6 55 20 56
20 34 -26 -34 -69 -52 -162 -43 -216 l8 -48 7 65 c9 70 31 145 59 199 l17 35
25 -40 c14 -21 35 -48 47 -59 19 -16 18 -11 -8 39 -30 55 -39 96 -24 96 16 0
111 -103 106 -115 -4 -13 22 -69 53 -112 16 -23 16 -23 -16 -23 -41 0 -140 46
-140 65 0 18 -27 45 -46 45 -24 0 -16 -32 16 -65 18 -19 33 -47 37 -68 5 -36
5 -37 -25 -37 -41 0 -48 -25 -27 -96 9 -31 14 -59 11 -62 -15 -14 -117 49
-179 110 l-68 67 12 43 c7 29 27 59 60 92 55 55 53 76 -4 57 -25 -8 -41 -9
-54 -2 -10 6 -40 20 -68 32 l-50 21 40 14 c21 8 49 24 61 35 19 17 30 19 80
14 33 -3 73 -2 89 4 40 13 45 13 45 1z m585 -70 c0 -24 -52 -42 -125 -42 -73
-1 -120 18 -120 48 0 12 19 14 123 12 100 -2 122 -6 122 -18z m-27 -102 c30
-28 58 -88 67 -147 l7 -44 -31 6 c-19 4 -31 2 -31 -4 0 -29 -65 -162 -86 -176
-23 -14 -26 -14 -45 3 -25 23 -58 84 -74 139 -10 34 -16 39 -41 40 -33 0 -33
4 -9 91 27 95 73 127 169 119 33 -3 57 -12 74 -27z"/>
<path d="M1980 1320 c-13 -8 -13 -10 2 -10 9 0 20 5 23 10 8 13 -5 13 -25 0z"/>
<path d="M1920 1250 c-13 -8 -12 -10 3 -10 9 0 17 5 17 10 0 12 -1 12 -20 0z"/>
<path d="M585 1060 c3 -5 11 -10 16 -10 6 0 7 5 4 10 -3 6 -11 10 -16 10 -6 0
-7 -4 -4 -10z"/>
<path d="M1835 1050 c4 -6 11 -8 16 -5 14 9 11 15 -7 15 -8 0 -12 -5 -9 -10z"/>
<path d="M765 1020 c3 -5 14 -10 23 -10 15 0 15 2 2 10 -20 13 -33 13 -25 0z"/>
<path d="M708 943 c7 -3 16 -2 19 1 4 3 -2 6 -13 5 -11 0 -14 -3 -6 -6z"/>
</g>
</svg>
